<svg xmlns="http://www.w3.org/2000/svg" xmlns:svg="http://www.w3.org/2000/svg" id="Layer_1" width="48" height="48" x="0" y="0" enable-background="new 0 0 121.187 91.974" version="1.1" viewBox="0 0 48 48" xml:space="preserve"><metadata id="metadata19"/><path style="fill:#ececec;stroke:none;stroke-width:1px;stroke-linecap:butt;stroke-linejoin:miter;stroke-opacity:1" id="path3759" d="M 24,4 20,40 24,46.065116 24,4 z"/><path style="fill:#ececec;stroke:none;stroke-width:1px;stroke-linecap:butt;stroke-linejoin:miter;stroke-opacity:1" id="path3735-2" d="M 24.03721,3.4976736 20,40.000001 l -11.9999986,0 L 24.03721,3.4976736 z"/><path style="fill:#ececec;stroke:none;stroke-width:1px;stroke-linecap:butt;stroke-linejoin:miter;stroke-opacity:1" id="path3735" d="M 23.962791,3.4976744 28,40 40,40 23.962791,3.4976744 z"/><g id="g3727"><path id="path3720" d="M 24,4 24,45.916279 28,40 24,3.1255814 24,4 z" style="fill:#b3b3b3;stroke:none;stroke-width:1px;stroke-linecap:butt;stroke-linejoin:miter;stroke-opacity:1"/><path id="path3638" d="M 24,2.5302326 8,40 l 12,10e-7 4,6.139534 0,-0.07442 0,0" style="fill:none;stroke:#000;stroke-width:1.30000007000000006;stroke-linecap:butt;stroke-linejoin:round;stroke-miterlimit:4;stroke-opacity:1;stroke-dasharray:none"/><path id="path3640" d="M 20,40.000001 24,2.9767442" style="fill:none;stroke:#000;stroke-width:.69999999;stroke-linecap:butt;stroke-linejoin:miter;stroke-miterlimit:4;stroke-opacity:1;stroke-dasharray:none"/><path id="path3642" d="M 24,45.990698 24,2.7534884" style="fill:none;stroke:#000;stroke-width:.69999999;stroke-linecap:butt;stroke-linejoin:miter;stroke-miterlimit:4;stroke-opacity:.78431373;stroke-dasharray:2.80000001,1.40000001;stroke-dashoffset:0"/><path id="path3638-9" d="m 24.000001,2.5302326 16,37.4697684 -12,0 -4,6.139535 0,-0.07442 0,0" style="fill:none;stroke:#000;stroke-width:1px;stroke-linecap:butt;stroke-linejoin:round;stroke-opacity:1"/><path id="path3640-6" d="m 28.000001,40.000001 -4,-37.0232564" style="fill:none;stroke:#000;stroke-width:.69999999;stroke-linecap:butt;stroke-linejoin:miter;stroke-miterlimit:4;stroke-opacity:1;stroke-dasharray:none"/></g></svg>