<svg xmlns="http://www.w3.org/2000/svg" xmlns:svg="http://www.w3.org/2000/svg" id="svg2834" width="15" height="15" version="1.1"><metadata id="metadata2839"/><g id="layer2" style="display:none"><rect style="fill:#b3b3b3" id="rect2856" width="15.029" height="15.029" x="0" y="0"/></g><g id="layer1" transform="translate(0,-33)"><rect style="fill:none" id="rect2852" width="17.409" height="12.706" x="-1.176" y="-.746" transform="translate(0,33)"/><g id="g3755" style="opacity:.74887892"><path id="path2858-0-8-5-7" d="m 7.5176101,33.005856 c 0,12.464051 -0.03522,14.959609 -0.03522,14.959609" style="fill:none;stroke:#fafafa;stroke-width:2.81594299999999986px;stroke-linecap:butt;stroke-linejoin:miter;stroke-opacity:1"/><path id="path2858-0-8-5-7-8" d="m 15.410341,40.546618 c -12.9903114,0 -15.59123758,-0.03587 -15.59123758,-0.03587" style="fill:none;stroke:#fafafa;stroke-width:2.90133119000000006px;stroke-linecap:butt;stroke-linejoin:miter;stroke-opacity:1"/><path id="path2858" d="m 0.02868069,7.5143403 c 6.13766731,0 6.96940721,1e-7 6.96940721,1e-7" transform="translate(0,33)" style="fill:none;stroke:#000;stroke-width:1px;stroke-linecap:butt;stroke-linejoin:miter;stroke-opacity:1"/><path id="path2858-0" d="m 8.0449331,40.514341 c 6.1376669,0 6.9694069,0 6.9694069,0" style="fill:none;stroke:#000;stroke-width:1px;stroke-linecap:butt;stroke-linejoin:miter;stroke-opacity:1"/><path id="path2858-0-8" d="m 7.5143404,33.014341 c 0,6.137666 0,6.969406 0,6.969406" style="fill:none;stroke:#000;stroke-width:1px;stroke-linecap:butt;stroke-linejoin:miter;stroke-opacity:1"/><path id="path2858-0-8-5" d="m 7.543021,41.044934 c 0,6.137666 0,6.969406 0,6.969406" style="fill:none;stroke:#000;stroke-width:1px;stroke-linecap:butt;stroke-linejoin:miter;stroke-opacity:1"/></g></g></svg>